<mxfile host="app.diagrams.net" modified="2024-06-13T05:24:20.603Z" agent="Mozilla/5.0 (Macintosh; Intel Mac OS X 10_15_7) AppleWebKit/537.36 (KHTML, like Gecko) Chrome/125.0.0.0 Safari/537.36" version="24.5.4" etag="mAEpJFD5UUs06eZEmXJd" type="github">
  <diagram name="Page-1" id="J5NP7OulbT8cKNfdq44i">
    <mxGraphModel>
      <root>
        <mxCell id="0" />
        <mxCell id="1" parent="0" />
      </root>
    </mxGraphModel>
  </diagram>
</mxfile>
